Coordinates
version=1
nRows=13
nColumns=34
inDegrees=yes

Units are S.I. units (second, meters, Newtons, ...)
If the header above contains a line with 'inDegrees', this indicates whether rotational values are in degrees (yes) or radians (no).

endheader
time	pelvis_tilt	pelvis_list	pelvis_rotation	pelvis_tx	pelvis_ty	pelvis_tz	hip_flexion_r	hip_adduction_r	hip_rotation_r	knee_angle_r	ankle_angle_r	subtalar_angle_r	mtp_angle_r	hip_flexion_l	hip_adduction_l	hip_rotation_l	knee_angle_l	ankle_angle_l	subtalar_angle_l	mtp_angle_l	lumbar_extension	lumbar_bending	lumbar_rotation	arm_flex_r	arm_add_r	arm_rot_r	elbow_flex_r	pro_sup_r	arm_flex_l	arm_add_l	arm_rot_l	elbow_flex_l	pro_sup_l
      1.06666670	     -3.64538780	      2.02884039	     -0.59951384	      1.83631273	      0.87774843	     -0.20997997	     -0.65509757	     -6.02633857	      4.73159415	      0.00000000	      2.62705778	    -22.42419539	      0.00000000	     -1.38176694	     -2.59839761	     -4.45099550	      0.00000000	      3.72856717	     -4.93627805	      0.00000000	     -3.58946598	     -0.51865476	     -0.34215451	      9.12261266	     -9.98482440	     38.68881967	     85.08728230	     91.81718011	      2.75579375	     -8.18238758	     26.88000155	     84.13664331	     93.45397456
      1.08333330	     -3.67720234	      2.04746709	     -0.54342401	      1.83638576	      0.87744148	     -0.21017976	     -0.64414459	     -6.06579293	      4.93428520	      0.00000000	      2.67002896	    -22.42696935	      0.00000000	     -1.33318031	     -2.59093148	     -4.46245458	      0.00000000	      3.58243897	     -4.90618456	      0.00000000	     -3.55140418	     -0.61775985	     -0.41842260	      9.03605055	     -9.93491849	     38.62917000	     85.00790125	     91.73311644	      2.74094864	     -7.95794523	     26.92490464	     84.10799809	     93.42726829
      1.10000000	     -3.67590088	      2.04398445	     -0.54304405	      1.83636956	      0.87712588	     -0.21007746	     -0.64269902	     -6.07255077	      4.93457954	      0.00000000	      2.67037702	    -22.42742183	      0.00000000	     -1.33368040	     -2.59385768	     -4.46247373	      0.00000000	      3.58190795	     -4.90619224	      0.00000000	     -3.55121460	     -0.61764926	     -0.41806339	      9.03593123	     -9.93470738	     38.62851917	     85.00729572	     91.73245266	      2.74079478	     -7.95811421	     26.92464845	     84.10738590	     93.42704188
      1.11666670	     -3.67466787	      2.03929707	     -0.54095151	      1.83636209	      0.87700352	     -0.20997239	     -0.63816447	     -6.09518845	      4.93810026	      0.00000000	      2.67148402	    -22.42854592	      0.00000000	     -1.33350572	     -2.60741507	     -4.46287432	      0.00000000	      3.58022177	     -4.90662612	      0.00000000	     -3.54975969	     -0.61764785	     -0.41749270	      9.03550851	     -9.93362191	     38.62553852	     85.00471319	     91.72953698	      2.74103323	     -7.95894654	     26.92360335	     84.10468814	     93.42607875
      1.13333330	     -3.67431190	      2.03739866	     -0.54053850	      1.83639010	      0.87721418	     -0.20996895	     -0.63741230	     -6.09755015	      4.93894068	      0.00000000	      2.67161182	    -22.42862104	      0.00000000	     -1.33258735	     -2.60728974	     -4.46292248	      0.00000000	      3.58004790	     -4.90670085	      0.00000000	     -3.54941273	     -0.61780402	     -0.41752492	      9.03541143	     -9.93336669	     38.62509917	     85.00434546	     91.72909142	      2.74119150	     -7.95919079	     26.92342627	     84.10424700	     93.42593404
      1.15000000	     -3.67289806	      2.03473852	     -0.54031957	      1.83641334	      0.87763724	     -0.21009573	     -0.63641406	     -6.10001985	      4.94083691	      0.00000000	      2.67171164	    -22.42852127	      0.00000000	     -1.32978455	     -2.60582709	     -4.46297028	      0.00000000	      3.57970048	     -4.90672908	      0.00000000	     -3.54869576	     -0.61837069	     -0.41771067	      9.03501230	     -9.93269800	     38.62443269	     85.00371610	     91.72832115	      2.74147244	     -7.95986578	     26.92310691	     84.10336174	     93.42568691
      1.16666670	     -3.70301736	      2.09665553	     -0.47613296	      1.83637017	      0.87797960	     -0.21055238	     -0.61690171	     -6.19135649	      5.11373520	      0.00000000	      2.65970557	    -22.39486210	      0.00000000	     -1.25979671	     -2.50368066	     -4.46124516	      0.00000000	      3.52509264	     -4.89272176	      0.00000000	     -3.52639830	     -0.61740312	     -0.46823576	      8.98842401	     -9.90027978	     38.56495993	     84.94047091	     91.66438683	      2.76667263	     -7.99186963	     26.90711152	     84.01987450	     93.40612724
      1.18333330	     -3.71579579	      2.09839844	     -0.56530254	      1.83654372	      0.87829938	     -0.21064638	     -0.57684210	     -6.19712998	      5.13655424	      0.00000000	      2.66158739	    -22.41218344	      0.00000000	     -1.26481833	     -2.48831879	     -4.44692316	      0.00000000	      3.49105273	     -4.87891492	      0.00000000	     -3.47846648	     -0.67770758	     -0.49150066	      8.97407430	     -9.85772408	     38.52590899	     84.91327027	     91.61960210	      2.76732013	     -7.99651279	     26.90696336	     83.96769695	     93.39285386
      1.20000000	     -3.72548019	      2.09223975	     -0.55960840	      1.83693584	      0.87824936	     -0.21081997	     -0.58465942	     -6.19094044	      5.14160894	      0.00000000	      2.65989762	    -22.41149547	      0.00000000	     -1.26079119	     -2.46825204	     -4.44907911	      0.00000000	      3.48805113	     -4.87853167	      0.00000000	     -3.47555804	     -0.67837898	     -0.48837491	      8.97463711	     -9.85214137	     38.52283948	     84.91132958	     91.61558155	      2.76694827	     -7.99866390	     26.90581801	     83.96342113	     93.39160908
      1.21666670	     -3.72443656	      2.08811119	     -0.55915137	      1.83712425	      0.87809894	     -0.21071392	     -0.58536246	     -6.19114284	      5.14205783	      0.00000000	      2.65958288	    -22.41138949	      0.00000000	     -1.25920069	     -2.46342738	     -4.44920717	      0.00000000	      3.48750066	     -4.87829422	      0.00000000	     -3.47506757	     -0.67824700	     -0.48808869	      8.97484760	     -9.85128402	     38.52240503	     84.91124793	     91.61505116	      2.76724196	     -7.99895963	     26.90556406	     83.96294818	     93.39144104
      1.23333330	     -3.74642766	      2.08592369	     -0.56267569	      1.83742710	      0.87773683	     -0.21052581	     -0.60110647	     -6.18493296	      5.14264610	      0.00000000	      2.65747464	    -22.41166602	      0.00000000	     -1.26512872	     -2.44301541	     -4.45046163	      0.00000000	      3.48302317	     -4.87625744	      0.00000000	     -3.46621125	     -0.67664796	     -0.48563434	      8.97629631	     -9.84226401	     38.51966507	     84.91287267	     91.61092242	      2.77035731	     -8.00231448	     26.90297140	     83.96019447	     93.39009853
      1.25000000	     -3.75052107	      2.08420748	     -0.56387784	      1.83730331	      0.87746907	     -0.21046038	     -0.60423572	     -6.18458574	      5.14223923	      0.00000000	      2.65727989	    -22.41189515	      0.00000000	     -1.26716161	     -2.43989963	     -4.45058774	      0.00000000	      3.48241355	     -4.87587150	      0.00000000	     -3.46453083	     -0.67648640	     -0.48529757	      8.97634882	     -9.84077931	     38.51941159	     84.91332452	     91.61035446	      2.77074022	     -8.00293638	     26.90257772	     83.95980982	     93.38991001
      1.26666670	     -3.75569358	      2.08566694	     -0.56654139	      1.83722727	      0.87745865	     -0.21057239	     -0.60741187	     -6.18236831	      5.14148944	      0.00000000	      2.65722353	    -22.41235844	      0.00000000	     -1.26934566	     -2.43830049	     -4.45063747	      0.00000000	      3.48193029	     -4.87549833	      0.00000000	     -3.46269642	     -0.67656972	     -0.48487152	      8.97652213	     -9.83902148	     38.51925744	     84.91400683	     91.60983053	      2.77129055	     -8.00371678	     26.90209473	     83.95952525	     93.38972812
